<svg xmlns="http://www.w3.org/2000/svg" data-name="Layer 1" width="164.89016" height="409.85035" viewBox="0 0 164.89016 409.85035" xmlns:xlink="http://www.w3.org/1999/xlink"><path d="M567.08809,371.68764a28.38178,28.38178,0,0,1,27.49517-43.42927,54.99663,54.99663,0,0,0,51.37-23.28334c-6.536,7.59252-13.072,15.185-19.49461,23.54042A134.194,134.194,0,0,0,567.08809,371.68764Z" transform="translate(-517.55492 -245.07483)" fill="#e14548"/><path d="M682.42513,281.98453a157.06676,157.06676,0,0,0-2.62743-24.20346c-.8809-3.78777-1.1283-8.01437-3.74545-11.09592-4.36382-3.77285-9.31986-.411-9.60561,4.86576-2.16979,11.61239-6.911,19.40448-13.2347,27.024-6.70374,7.71614-9.26109,9.70258-17.54138,14.42906-7.70188,4.32062-13.98691,6.07325-24.63885,7.59441-.49642.053-2.60671.312-3.645.4489q.521-.07,1.04192-.14c-5.519.64628-11.073.775-16.62095.96192-10.73583.65076-23.11321,1.31467-30.51377,10.20767-9.08,10.51273-13.23734,24.8233-13.09506,38.57257-.093,5.73711,1.63862,11.23644,3.56519,16.575,1.72831,5.31473,5.18427,9.75164,8.67285,14.0246a75.69643,75.69643,0,0,1-4.26135-9.86749,76.46762,76.46762,0,0,1-2.23275-14.22146c-.20817-8.63185,2.44453-17.22551,4.905-23.51384,3.46426-7.3797,5.90841-11.7696,10.12657-15.86133,3.69587-3.16991,2.6646-2.6967,8.65264-4.33767,6.64321-1.60013,14.58985-1.5083,24.38365-1.77664,9.37187-.55064,18.84319-1.53755,27.8438-4.31329,12.7778-4.42743,24.42729-12.171,32.69788-22.95013a70.30434,70.30434,0,0,0,7.91021-11.63186c.51317,9.05291.21831,19.33712-2.33742,26.8259-1.97822,6.22759-1.13654,4.48113-3.59061,9.28555-2.8503,4.73288-2.91935,4.99556-8.538,10.02527-2.72234,2.80865-18.40436,9.53017-26.90443,13.82619-15.354,7.54674-30.19944,17.87906-38.61856,33.16573a139.578,139.578,0,0,1-10.14273,17.17379c-3.68463-3.394-11.04214.18805-15.22136,1.11656q-1.53071.43071-3.05481.88546c2.47846-.19716,4.95589-.40931,7.42575-.697a27.62384,27.62384,0,0,1,6.49351-.18277c.88178.13737,2.02919.35333,2.40617,1.26884,1.72023,4.64061,1.59609,8.40942,2.19771,13.49511,1.04883,15.51174,2.10691,31.04089,2.7357,46.58239-4.76181-9.40265-12.66768-16.68655-21.42287-22.41022A208.0161,208.0161,0,0,0,583.35,446.49256c.36259,9.219.57326,18.44218.5333,27.66875-.45073,16.73944-1.783,33.43165-3.06994,50.12569a118.13972,118.13972,0,0,0-20.918-31.35346c.3075-10.40078.77939-20.79944,1.05941-31.20066,4.85466,8.74784,10.17887,17.26047,16.85241,24.74962,1.63341,1.889,3.32249,3.72863,5.03009,5.55052-.134-.31175-.26783-.62475-.40373-.93629a98.614,98.614,0,0,0-21.43095-30.99858c.1929-7.8034.25813-15.60841.03092-23.417-.20825-16.85814-.18614-33.73289-2.001-50.51692-2.021,25.50043-5.67394,50.84072-7.13266,76.39213-1.64376,27.59655-1.3813,55.24936-2.06093,82.876-.25614,16.05364-.30352,32.11-.25269,48.1654-.0725,7.8377.317,15.66652.96773,23.47557a113.9973,113.9973,0,0,0,3.09815,21.22447c1.57008,5.6956,3.75779,11.89667,8.89688,15.29864,6.24338,3.7412,12.63463-1.03186,15.54238-6.69727,4.48532-7.1821,5.90922-15.63824,6.96231-23.90523,2.08619-15.59372,1.9622-31.36859,2.08281-47.07059-.28868-18.1045.8743-36.15626,2.34315-54.19061,1.22058-18.64081,3.205-37.27362,2.9627-55.97453.08374-18.8379-2.05976-37.58251-5.11588-56.148-.87826-5.363-1.86259-10.71056-3.07171-16.00964-.84946-3.40314-1.53511-6.9673-3.39756-9.98575-.01763-.02182-.03878-.03643-.05671-.05781,5.765-4.66323,10.4254-10.46829,15.38217-15.957a64.46261,64.46261,0,0,1,13.24734-11.01974,125.44779,125.44779,0,0,1,19.6953-10.1561q-.72547.306-1.45064.61205c8.40648-3.59134,8.02891-3.252,20.72737-8.82681,10.33931-4.38667,20.39153-10.70593,26.187-20.61455C680.58429,306.82553,682.67621,294.20361,682.42513,281.98453ZM559.7343,498.67881c.02336-1.05743.06083-2.1147.08889-3.17212,3.73267,6.41314,7.23814,12.95924,11.13793,19.27424,2.5896,4.04516,6.24661,9.64762,9.499,14.11392-.5264,6.91728-1.03164,13.83551-1.44653,20.75845-.3855,8.55685-.43957,17.12619-.48423,25.69582-4.462-12.03125-10.15485-24.06991-19.489-32.98282C559.26939,527.80385,559.5608,513.24206,559.7343,498.67881Zm-.72546,45.78023c3.69374,6.512,6.60023,13.46352,10.5712,19.82752,2.71757,4.50236,5.80624,8.7604,8.9392,12.98047-.05156,9.81577-.1306,19.63036-.70313,29.42608-1.71656-3.10983-3.5555-6.15017-5.569-9.07914a114.08559,114.08559,0,0,0-13.54081-15.70053c.001-.32248.00353-.645.004-.96751C558.6857,568.78216,558.82314,556.62038,559.00884,544.459Zm12.77728,95.7806c-1.986,3.30206-2.01274,3.59869-3.58333,5.05513a5.762,5.762,0,0,1-.51208.33717l-.004.00184c-.11518.03658-.23161.066-.34885.09556-4.9686-3.50576-7.34245-18.94111-8.07556-31.74315-.7611-9.55785-.62939-19.14282-.57047-28.72235A243.83242,243.83242,0,0,0,577.404,612.60637c-.04466.55049-.0811,1.10127-.12973,1.65162C576.33741,623.43174,575.289,633.59011,571.78612,640.23964Z" transform="translate(-517.55492 -245.07483)"/><path d="M605.305,327.97639c-1.73786.299-5.2434.49827-7.71025.64761-8.38636.57414-17.68844,2.24817-23.51642,8.84532-9.52921,12.43952-5.87962,29.34821-4.51316,43.77976,2.96842-14.47144,3.44075-33.38419,11.04516-40.82927,3.17057-3.2488,8.34272-5.42146,13.47447-7.14661,5.62758-1.74271,11.41721-3.13811,16.5519-6.13709.10416-.05715.20641-.11356.31043-.17C609.07921,327.37118,607.1984,327.71474,605.305,327.97639Z" transform="translate(-517.55492 -245.07483)"/><circle cx="6" cy="90.95959" r="6"/><circle cx="101.5" cy="15.45959" r="6"/><circle cx="120.5" cy="130.45959" r="6"/></svg>